<?xml version="1.0" encoding="UTF-8"?>
<svg id="Layer_1" data-name="Layer 1" xmlns="http://www.w3.org/2000/svg" viewBox="0 0 1608 447">
  <path d="M174.16,444.28C81.42,420.45,16.71,351.17,4.87,255.51c-2.03-16.43-.8-53.55,2.86-69.75l3.13-13.86c1.24-5.48,3.01-11.06,4.55-16.31,1.88-6.4,5.96-9.64,11.32-12.97,16.73-10.41,33.56-19.66,52.2-26.48-.43-26.39-.18-45.24,14.71-67.48,4.6-6.87,9.32-13.94,15.71-19.27,8.32-6.94,17.14-13.28,27.05-17.74,33.78-15.22,70.55-9.19,99.01,14.07,24.73,20.22,36.91,51.44,34.47,83.23-.19,2.5.72,6.43,2.12,7.98,18.01,6.9,34.16,15.49,50.39,25.84,3.8,2.42,8.65,5.3,9.99,9.96,4.79,16.73,9.41,33.17,10.83,50.75,3.67,45.44-.25,83.19-20.36,124.43-29.37,60.22-84.43,100.01-148.7,116.38ZM201.03,99.55c16.24,1.98,31.65,4.48,47.73,9.68,5.49-37.2-20.05-75.53-56.58-83.13-21.66-4.51-43.41-1.58-60.76,11.17-22.59,16.61-34.95,42.61-32.15,70.8,4.35-.12,8.56-.8,12.76-1.98,12.03-3.38,23.6-5.17,35.96-6.61,18.04-2.1,34.98-2.14,53.03.06ZM211.97,279.36c17.11,6.17,35.48,4.44,50.05-5.23-.71-13.5,9.74-23.5,22.4-22.06,11.85,1.35,19.95,12.94,16.95,24.73-2.98,11.71-15.39,18.31-27.5,13.53-30.52,20.47-71.76,16.39-96.05-11.16l-24.25-27.5c-21.6-24.5-60.35-23.54-81.6,1.22-28.44,33.12-13.12,85.88,11.66,116.66,23.14,28.75,54.46,43.02,89.9,53.54,1.88.44,51.6-15.2,44.12-18.54-48.92-2.33-94.32-33.37-123.61-71.4-6-7.79-11.4-15.11-12.96-25.27-2.33-15.12,1.42-25.7,13.49-35.19,11.69-9.2,27.44-8.69,38.95,1.13,15.7,13.4,24.46,31.38,48.5,47.19,7.95,5.23,16.36,8.45,25.49,10.65,34.17,8.23,67.58-.78,91.42-26.76,4.69-5.11,8.33-10.21,12.22-16,9.25-13.77,11.31-23.58,12.5-40.4,1.09-15.34.62-42.64-2.7-57.51l-4.89-21.86c-1.03-4.6-2.29-8.17-6.48-10.77-32.19-19.97-67.58-33.43-105.49-38.07-59.04-7.22-117.72,6.78-166.77,39.87-1.83,1.23-3.65,4.03-4.07,5.9l-7.75,34.69c4.77,1.66,5.09-1.73,7.34-3.98,9-8.99,19.2-17.25,30.82-22.84,35.74-17.19,76.13-14.8,109.78,5.59,27.78,16.83,41.51,41.47,52.96,49.95,3.64,2.7,10.76,1.94,14.12-.88,4.68-3.93,8.25-8.36,11.58-13.35l-22.89-19.01,70.54-22.95-5.76,44.67-3.83,29.67c-7.01-5.81-12.39-10.63-18.48-16.4-6.83-6.47-5.74,2.25-20.06,13.2-13.01,9.95-30.65,8.57-42.06-2.99-13.64-13.82-19.89-24.34-36.44-37.57-40.09-32.05-100.56-27.81-133.57,14.63-5.74,7.38-11.16,14.54-14.17,23.78-.69,3.48-.69,9.89,0,13.54l3.89,20.83c1.06,5.68,1.88,10.22,4.45,16.14,2.32-4.59,3.28-7.93,3.97-12.08,2.44-14.74,8.7-27.43,18.07-39.07,28.81-35.79,82.53-37.48,113.65-2.03l18.26,20.8c6.79,7.74,13.93,15.2,24.32,18.96ZM255.77,380.73c15.24-10.33,28.1-27.17,37.99-41.24.57-.81.31-3.07-.22-3.46-.34-.25-1.82-.18-2.46.26-34.26,23.79-82.11,25.34-117.39,2.26-11.87-7.76-21.65-14.95-30.94-25.38l-20.59-23.11c-3.41-3.83-9.33-4.58-13.35-3.03-11.22,4.34-8.58,19.81-5.7,24.91,5.33,9.43,12.2,16.59,19.53,24.48,21.14,22.75,47.81,39.27,78.36,45.52,9.98,2.04,18.93,2.94,29.12,2.39,8.15-.44,17.84,1.69,25.65-3.61Z"/>
  <path d="M599.19,284.85c-6.13,33.66-29.07,59.77-60.28,72.05-14.63,5.28-29.2,8.01-44.96,8.02h-57.48s0-204.92,0-204.92l62.48.12c18.21.03,35.4,3.01,51.99,9.79,21.92,9.17,37.92,26.41,44.9,49.3,6.46,21.19,7.45,43.17,3.35,65.65ZM572.27,288.72c5.09-19.49,4.81-38.96-.23-57.81-9.57-35.81-42.8-48.75-77.03-48.65l-33.96.1v160.34s32.97-.08,32.97-.08c35.66-.09,68.64-17.13,78.25-53.9Z"/>
  <path d="M1549.03,330.41l30.12-112,23.82.12-43.78,146.28-25,.05-30.09-104.8c-.96-3.35-1.45-6.64-2.17-9.97l-35.61,114.86-24.03.05-44.3-146.5,25.29-.02,30.41,110.62c1.07,3.9,1.19,7.89,1.71,11.99,1.63-6.81,3.15-13.21,5.34-20.35l31.45-102.33,22.06.1,30.58,111.6c.99,3.6,1.08,7.14,1.66,11.03l2.54-10.73Z"/>
  <path d="M918.47,247.88c11.74,25.06,10.05,63.66-3.17,88.22-11.14,20.71-30.99,32.07-54.29,32.37-18.8.24-34.86-7.02-45.38-23.89l-.48,20.44-23.79-.07v-216.58s23.91-.14,23.91-.14l.13,95.29c11.8-19.13,29.78-28.83,51.61-28.64,22.76.19,42.18,11.72,51.45,32.99ZM851.51,347.71c18.96,2.24,34.98-6.7,42.73-23.8,11.12-24.56,12.13-69.21-14.33-83.67-14.44-7.89-32.96-6.44-46,3.58-11.88,9.12-17.73,23.28-18.33,37.94-.37,9.01-.45,17.52.04,26.43,1.1,20.05,15.55,37.12,35.89,39.53Z"/>
  <path d="M661.53,328.39c17.87,28.79,60.44,22.75,84.49,3.39l.12,22.86c-18.03,12.54-42.95,15.56-63.76,12.84-23.3-3.05-41.7-18.72-48.93-41.29-6.07-18.93-6.77-39.25-2.04-58.73,4.75-19.51,17.08-35.84,34.5-45.34,12.55-6.84,26.35-8.06,40.34-6.47,18.17,2.05,33.31,12.37,41.53,28.77,8.63,17.21,8.88,34.15,8.35,53.42l-102.61.02c.06,10.74,2.28,21.3,8.01,30.53ZM731.49,277.4c.27-20.64-9.28-39-30.45-41.69-25.54-3.25-43.93,16.63-47.24,41.67l77.69.02Z"/>
  <path d="M1378.13,318.02c-11.65,42.91-55.29,58.75-94.73,46.6-21.53-6.64-37.11-24.31-42.81-46.05-4.64-17.71-4.21-35.91.46-53.54,10.61-40.05,49.65-55.49,88.39-48.42,22.48,4.1,40.15,19.64,47.24,41.62,6.22,19.28,6.78,40.12,1.44,59.79ZM1353.26,317.61c5.27-17.2,5-35.62-.22-52.24-5.99-19.06-21.56-29.68-41.03-30.16-20.39-.51-38.08,10.04-45.31,29.65-6.01,16.32-6.41,34.78-1.08,51.38,6.82,21.24,25.68,32.85,47.4,31.9,19.1-.84,34.36-11.29,40.25-30.53Z"/>
  <polygon points="1134.76 252.33 1134.9 274.4 1061.05 274.48 1061.05 364.98 1036.48 364.94 1036.47 159.93 1140.82 159.94 1140.83 182.16 1061.04 182.25 1061.05 252.29 1134.76 252.33"/>
  <polygon points="1200.33 364.77 1176.35 364.97 1176.36 148.26 1200.32 148.31 1200.33 364.77"/>
  <polygon points="986.33 364.83 962.35 364.88 962.35 218.61 986.31 218.43 986.33 364.83"/>
  <path d="M969.94,151.68c8.84-2.57,17.35,2.04,19.69,9.98,2.46,8.38-1.71,17.18-10.48,19.64-7.68,2.15-16.49-1.35-19.13-9.63-2.49-7.8.81-17.33,9.92-19.98Z"/>
</svg>